<svg aria-hidden="true" style="position: absolute; width: 0; height: 0; overflow: hidden;" version="1.1"
    xmlns="http://www.w3.org/2000/svg" xmlns:xlink="http://www.w3.org/1999/xlink">
    <defs>
        <symbol id="icon-burger" viewBox="0 0 32 32">
            <path fill="#fefefa" style="fill: var(--color1, #fefefa)"
                d="M4.8 8c0-0.884 0.716-1.6 1.6-1.6h19.2c0.884 0 1.6 0.716 1.6 1.6s-0.716 1.6-1.6 1.6h-19.2c-0.884 0-1.6-0.716-1.6-1.6v0zM4.8 16c0-0.884 0.716-1.6 1.6-1.6h19.2c0.884 0 1.6 0.716 1.6 1.6s-0.716 1.6-1.6 1.6h-19.2c-0.884 0-1.6-0.716-1.6-1.6v0zM4.8 24c0-0.884 0.716-1.6 1.6-1.6h19.2c0.884 0 1.6 0.716 1.6 1.6s-0.716 1.6-1.6 1.6h-19.2c-0.884 0-1.6-0.716-1.6-1.6v0z">
            </path>
        </symbol>
        <symbol id="icon-inst" viewBox="0 0 31 32">
            <path
                d="M23.278 5.536c-0.359 0-0.711 0.113-1.011 0.323-0.299 0.211-0.533 0.512-0.671 0.862-0.088 0.218-0.139 0.47-0.139 0.735 0 0.133 0.013 0.262 0.037 0.387l-0.002-0.013c0.070 0.373 0.244 0.715 0.498 0.983 0.255 0.269 0.579 0.451 0.932 0.525 0.354 0.075 0.72 0.036 1.053-0.109 0.342-0.154 0.62-0.397 0.813-0.7l0.004-0.008c0.193-0.301 0.307-0.669 0.307-1.064 0-0.001 0-0.002 0-0.003v0c0-0.509-0.192-0.997-0.533-1.358-0.323-0.345-0.78-0.56-1.288-0.562h-0zM30.258 9.408c-0.031-1.401-0.284-2.734-0.725-3.977l0.027 0.089c-0.403-1.103-1.002-2.047-1.762-2.834l0.002 0.002c-0.727-0.796-1.625-1.422-2.638-1.823l-0.048-0.017c-1.089-0.448-2.352-0.721-3.675-0.752l-0.012-0c-1.609-0.096-2.125-0.096-6.253-0.096s-4.643 0-6.251 0.096c-1.336 0.031-2.599 0.304-3.759 0.777l0.071-0.025c-1.013 0.395-1.932 1.024-2.686 1.84-0.763 0.78-1.359 1.726-1.729 2.779l-0.016 0.053c-0.426 1.154-0.686 2.486-0.713 3.876l-0 0.012c-0.091 1.696-0.091 2.24-0.091 6.592s0 4.896 0.091 6.592c0.027 1.329 0.268 2.644 0.714 3.888 0.386 1.106 0.983 2.052 1.746 2.833l-0.001-0.001c0.73 0.792 1.627 1.418 2.637 1.823l0.049 0.017c1.18 0.469 2.427 0.725 3.687 0.752 1.609 0.096 2.125 0.096 6.252 0.096 4.128 0 4.644 0 6.253-0.096 1.335-0.031 2.598-0.304 3.758-0.777l-0.071 0.026c1.060-0.418 1.959-1.044 2.681-1.835l0.005-0.005c0.762-0.783 1.362-1.728 1.743-2.778l0.017-0.054c0.433-1.248 0.669-2.56 0.698-3.888 0-1.696 0.092-2.24 0.092-6.592s0-4.896-0.091-6.592zM27.529 22.4c-0.012 1.069-0.2 2.091-0.537 3.042l0.020-0.066c-0.253 0.719-0.641 1.333-1.139 1.841l0.001-0.001c-0.492 0.529-1.088 0.939-1.745 1.2-0.905 0.349-1.859 0.533-2.822 0.544-1.518 0.080-2.080 0.096-6.069 0.096-3.991 0-4.554 0-6.070-0.096-0.048 0.001-0.104 0.002-0.16 0.002-0.998 0-1.955-0.176-2.841-0.5l0.058 0.018c-0.655-0.293-1.211-0.698-1.666-1.196l-0.003-0.004c-0.494-0.506-0.878-1.121-1.113-1.806l-0.010-0.034c-0.354-0.899-0.574-1.939-0.608-3.026l-0-0.014c0-1.6-0.091-2.192-0.091-6.4s0-4.8 0.091-6.4c0.007-1.092 0.201-2.136 0.552-3.105l-0.020 0.065c0.277-0.693 0.684-1.28 1.196-1.757l0.003-0.003c0.45-0.537 1.007-0.97 1.64-1.268l0.029-0.012c0.855-0.336 1.844-0.535 2.879-0.544l0.004-0c1.518 0 2.079-0.096 6.069-0.096 3.991 0 4.553 0 6.070 0.096 0.963 0.011 1.918 0.195 2.822 0.544 0.718 0.288 1.323 0.724 1.801 1.274l0.005 0.006c0.497 0.491 0.885 1.092 1.138 1.76 0.337 0.974 0.512 2.003 0.516 3.040 0.075 1.6 0.091 2.192 0.091 6.4s-0.015 4.8-0.091 6.4zM15.175 7.792c-1.621 0.007-3.12 0.527-4.343 1.406l0.022-0.015c-1.279 0.92-2.265 2.173-2.842 3.632l-0.019 0.055c-0.373 0.928-0.589 2.005-0.589 3.132 0 0.569 0.055 1.125 0.16 1.663l-0.009-0.054c0.314 1.642 1.070 3.071 2.138 4.202l-0.004-0.004c1.042 1.104 2.403 1.898 3.935 2.233l0.051 0.009c0.455 0.099 0.979 0.157 1.515 0.157 1.079 0 2.103-0.23 3.028-0.645l-0.047 0.019c1.46-0.657 2.65-1.696 3.472-2.991l0.019-0.032c0.823-1.288 1.311-2.859 1.311-4.544 0-0.005 0-0.011 0-0.016v0.001c0-0.006 0-0.013 0-0.020 0-1.125-0.217-2.2-0.61-3.184l0.020 0.058c-0.41-1.034-0.982-1.919-1.695-2.67l0.003 0.004c-0.701-0.741-1.543-1.341-2.483-1.76l-0.049-0.020c-0.872-0.389-1.889-0.616-2.959-0.616-0.010 0-0.019 0-0.029 0h0.001zM15.175 21.328c-1.053-0.002-2.028-0.338-2.823-0.908l0.015 0.010c-0.831-0.596-1.472-1.408-1.848-2.355l-0.012-0.036c-0.244-0.605-0.385-1.306-0.385-2.040 0-0.367 0.035-0.726 0.103-1.073l-0.006 0.035c0.203-1.067 0.693-1.996 1.386-2.731l-0.002 0.003c0.676-0.718 1.559-1.234 2.554-1.452l0.033-0.006c0.297-0.065 0.637-0.102 0.987-0.102 0.699 0 1.364 0.149 1.963 0.417l-0.030-0.012c0.949 0.426 1.722 1.101 2.256 1.942l0.012 0.021c0.535 0.841 0.852 1.865 0.852 2.963 0 0.733-0.141 1.433-0.398 2.074l0.013-0.038c-0.266 0.67-0.637 1.243-1.099 1.73l0.002-0.002c-0.454 0.48-0.999 0.87-1.607 1.142l-0.032 0.013c-0.612 0.267-1.269 0.405-1.934 0.405z">
            </path>
        </symbol>
        <symbol id="icon-in" viewBox="0 0 31 32">
            <path
                d="M28.139 0h-25.86c-0.009-0-0.020-0-0.030-0-0.296 0-0.578 0.060-0.834 0.17l0.014-0.005c-0.283 0.12-0.524 0.287-0.725 0.492l-0 0c-0.204 0.209-0.369 0.457-0.483 0.731l-0.006 0.015c-0.111 0.261-0.177 0.565-0.181 0.884l-0 0.002v27.423c0.004 0.304 0.066 0.605 0.181 0.885 0.114 0.279 0.281 0.533 0.49 0.746 0.208 0.213 0.454 0.38 0.725 0.493 0.269 0.112 0.558 0.169 0.849 0.164h25.86c0.291 0.004 0.58-0.052 0.85-0.164 0.27-0.113 0.516-0.281 0.725-0.493 0.208-0.213 0.373-0.466 0.489-0.747 0.115-0.279 0.176-0.58 0.181-0.885v-27.422c-0.005-0.32-0.071-0.624-0.187-0.901l0.006 0.016c-0.12-0.289-0.286-0.537-0.49-0.746l0 0c-0.201-0.206-0.443-0.373-0.711-0.487l-0.014-0.005c-0.243-0.105-0.525-0.166-0.822-0.166-0.010 0-0.019 0-0.029 0h0.001zM9.239 26.784h-4.58v-14.4h4.58v14.4zM6.949 10.368c-0.631 0-1.237-0.262-1.684-0.731-0.432-0.457-0.698-1.075-0.698-1.756 0-0.003 0-0.007 0-0.010v0.001c0-0.661 0.252-1.297 0.698-1.764 0.423-0.449 1.021-0.729 1.685-0.732h0c0.081-0.010 0.174-0.016 0.269-0.016 0.26 0 0.51 0.043 0.743 0.123l-0.016-0.005c0.321 0.107 0.618 0.285 0.869 0.521 0.252 0.235 0.453 0.524 0.591 0.847 0.133 0.303 0.21 0.655 0.21 1.026s-0.077 0.723-0.216 1.043l0.007-0.017c-0.139 0.323-0.339 0.612-0.591 0.848-0.252 0.235-0.548 0.413-0.869 0.519-0.322 0.107-0.661 0.142-0.997 0.102zM25.758 26.784h-4.58v-7.728c0-1.936-0.656-3.2-2.32-3.2-0.542 0.005-1.041 0.187-1.443 0.49l0.006-0.005c-0.418 0.315-0.736 0.744-0.909 1.24l-0.006 0.018c-0.119 0.375-0.172 0.772-0.154 1.168v8h-4.579v-14.4h4.579v2.032c0.416-0.757 1.022-1.38 1.75-1.803 0.637-0.377 1.403-0.6 2.222-0.6 0.058 0 0.116 0.001 0.173 0.003l-0.008-0c3.053 0 5.267 2.064 5.267 6.496v8.288z">
            </path>
        </symbol>
        <symbol id="icon-git" viewBox="0 0 31 32">
            <path
                d="M15.756 0c-8.378 0-15.172 7.345-15.172 16.405-0.003 3.439 0.996 6.791 2.859 9.585 1.863 2.794 4.494 4.885 7.52 5.981 0.759 0.151 1.037-0.355 1.037-0.789 0-0.391-0.014-1.423-0.021-2.79-4.221 0.99-5.111-2.201-5.111-2.201-0.689-1.895-1.685-2.4-1.685-2.4-1.378-1.017 0.103-0.996 0.103-0.996 1.523 0.116 2.323 1.691 2.323 1.691 1.355 2.507 3.552 1.783 4.418 1.363 0.137-1.060 0.529-1.783 0.963-2.194-3.369-0.415-6.912-1.822-6.912-8.107 0-1.792 0.592-3.255 1.563-4.404-0.157-0.414-0.677-2.083 0.148-4.34 0 0 1.275-0.441 4.173 1.681 1.137-0.348 2.444-0.549 3.798-0.551h0.001c1.284 0.003 2.561 0.189 3.799 0.555 2.896-2.123 4.17-1.682 4.17-1.682 0.827 2.259 0.307 3.925 0.151 4.341 0.973 1.148 1.559 2.612 1.559 4.403 0 6.301-3.548 7.687-6.928 8.094 0.544 0.507 1.030 1.508 1.030 3.038 0 2.193-0.019 3.963-0.019 4.499 0 0.439 0.273 0.949 1.043 0.789 3.024-1.099 5.652-3.191 7.511-5.984 1.86-2.794 2.859-6.144 2.855-9.581 0-9.060-6.795-16.405-15.179-16.405z">
            </path>
        </symbol>
        <symbol id="icon-fb" viewBox="0 0 31 32">
            <path
                d="M29.231 0h-27.012c-0.443 0-0.867 0.186-1.18 0.515-0.314 0.331-0.489 0.779-0.489 1.245v28.48c0 0.231 0.043 0.46 0.127 0.673 0.083 0.213 0.207 0.407 0.362 0.572 0.155 0.163 0.339 0.292 0.542 0.381s0.419 0.134 0.639 0.134h14.538v-12.4h-3.947v-4.8h3.947v-3.6c-0.018-0.177-0.029-0.382-0.029-0.59 0-0.683 0.112-1.34 0.318-1.954l-0.013 0.043c0.277-0.832 0.705-1.548 1.256-2.148l-0.004 0.004c0.543-0.592 1.209-1.063 1.958-1.373l0.037-0.013c0.583-0.242 1.26-0.383 1.97-0.383 0.138 0 0.275 0.005 0.41 0.016l-0.018-0.001c0.056-0 0.123-0.001 0.189-0.001 1.179 0 2.342 0.070 3.485 0.206l-0.138-0.013v4.32h-2.413c-1.911 0-2.276 0.96-2.276 2.352v3.088h4.553l-0.592 4.8h-3.961v12.448h7.74c0.219 0 0.436-0.046 0.639-0.134 0.203-0.087 0.386-0.218 0.541-0.381 0.155-0.164 0.277-0.357 0.363-0.572 0.083-0.213 0.126-0.442 0.126-0.673v-28.48c0-0.231-0.043-0.46-0.127-0.673-0.088-0.222-0.21-0.411-0.362-0.573l0.001 0.001c-0.15-0.158-0.33-0.287-0.531-0.377l-0.011-0.004c-0.187-0.084-0.406-0.134-0.637-0.134h-0z">
            </path>
        </symbol>
        <symbol id="icon-be" viewBox="0 0 30 32">
            <path
                d="M25.283 19.141c-0.072-0.020-0.155-0.031-0.24-0.031-0.315 0-0.594 0.154-0.765 0.391l-0.002 0.003c-0.072 0.098-0.128 0.213-0.16 0.338l-0.001 0.007c-0.183 0.705-0.602 1.292-1.166 1.685l-0.010 0.006c-0.452 0.316-1.013 0.505-1.619 0.505-0.864 0-1.637-0.385-2.159-0.992l-0.003-0.004c-0.446-0.515-0.718-1.192-0.718-1.933 0-0.002 0-0.004 0-0.006v0-0.978h6.731c0 0 0.001 0 0.002 0 0.266 0 0.506-0.109 0.679-0.286l0-0c0.174-0.177 0.282-0.42 0.282-0.688 0-0.002 0-0.003 0-0.005v0c0-0 0-0.001 0-0.001 0-0.674-0.134-1.317-0.378-1.902l0.012 0.033c-0.254-0.616-0.607-1.143-1.043-1.587l0.001 0.001c-0.434-0.442-0.953-0.799-1.529-1.047l-0.031-0.012c-0.543-0.235-1.176-0.372-1.84-0.372s-1.297 0.137-1.871 0.384l0.031-0.012c-0.607 0.26-1.125 0.618-1.559 1.059l-0.001 0.001c-0.436 0.443-0.788 0.97-1.030 1.554l-0.012 0.032c-0.231 0.553-0.366 1.196-0.366 1.87 0 0 0 0.001 0 0.001v-0 1.956c0 1.189 0.427 2.339 1.2 3.232 0.876 1.017 2.165 1.657 3.603 1.657 1.012 0 1.949-0.316 2.719-0.856l-0.015 0.010c0.955-0.669 1.652-1.65 1.947-2.793l0.007-0.034c0.019-0.072 0.029-0.154 0.029-0.239 0-0.184-0.050-0.357-0.137-0.504l0.003 0.005c-0.13-0.218-0.337-0.38-0.583-0.446l-0.007-0.002zM21.326 14.222c0.763 0 1.493 0.307 2.036 0.853 0.301 0.313 0.53 0.689 0.672 1.103h-5.417c0.197-0.571 0.564-1.065 1.049-1.414 0.459-0.336 1.035-0.539 1.658-0.542h0.001zM19.402 11.289h3.846c0.256 0 0.5-0.102 0.681-0.286 0.175-0.178 0.283-0.422 0.283-0.691s-0.108-0.513-0.283-0.691l0 0c-0.173-0.177-0.414-0.287-0.68-0.287h-3.845c-0.266 0.001-0.507 0.11-0.679 0.287l-0 0c-0.175 0.178-0.283 0.422-0.283 0.691s0.108 0.513 0.283 0.691l-0-0c0.173 0.176 0.413 0.285 0.679 0.286h0zM13.553 15.901c0.513-0.555 0.855-1.25 0.983-2.001 0.036-0.201 0.057-0.433 0.057-0.669 0-0.561-0.117-1.095-0.327-1.578l0.010 0.026c-0.306-0.708-0.794-1.289-1.405-1.701l-0.014-0.009c-0.59-0.398-1.317-0.635-2.099-0.635-0.004 0-0.008 0-0.012 0h-4.808c-0.001 0-0.002 0-0.002 0-0.266 0-0.506 0.109-0.678 0.286l-0 0c-0.173 0.177-0.281 0.419-0.281 0.686 0 0.002 0 0.004 0 0.007v-0 12.71c0 0 0 0.001 0 0.001 0 0.269 0.107 0.513 0.281 0.692l-0-0c0.174 0.176 0.414 0.285 0.68 0.286h5.289c0.001 0 0.003 0 0.005 0 0.979 0 1.881-0.329 2.602-0.883l-0.010 0.007c0.738-0.568 1.286-1.351 1.551-2.255l0.008-0.031c0.11-0.368 0.173-0.792 0.173-1.23 0-0.556-0.102-1.088-0.288-1.579l0.010 0.031c-0.339-0.904-0.939-1.644-1.708-2.149l-0.017-0.010zM6.901 11.289h3.846c0.51 0 0.998 0.207 1.359 0.573 0.362 0.367 0.564 0.864 0.564 1.383 0 0.518-0.203 1.015-0.563 1.382-0.346 0.353-0.827 0.572-1.36 0.573h-3.847v-3.911zM11.228 22.045h-4.326v-4.89h4.326c0.638 0 1.249 0.258 1.7 0.717s0.704 1.079 0.704 1.728c0 0.001 0 0.002 0 0.004 0 0.672-0.269 1.28-0.704 1.725l0-0c-0.451 0.459-1.062 0.717-1.7 0.717z">
            </path>
            <path fill="none" stroke="#000" style="stroke: var(--color2, #000)" stroke-linejoin="miter"
                stroke-linecap="butt" stroke-miterlimit="4" stroke-width="1.6"
                d="M2.133 0.8h25.6c0.736 0 1.333 0.597 1.333 1.333v27.733c0 0.736-0.597 1.333-1.333 1.333h-25.6c-0.736 0-1.333-0.597-1.333-1.333v-27.733c0-0.736 0.597-1.333 1.333-1.333z">
            </path>
        </symbol>
        <symbol id="icon-email" viewBox="0 0 41 32">
            <path fill="none" stroke="#fefefa" style="stroke: var(--color1, #fefefa)" stroke-linejoin="round"
                stroke-linecap="round" stroke-miterlimit="4" stroke-width="4.5714"
                d="M5.943 2.286h29.257c2.011 0 3.657 1.543 3.657 3.429v20.571c0 1.886-1.646 3.429-3.657 3.429h-29.257c-2.011 0-3.657-1.543-3.657-3.429v-20.571c0-1.886 1.646-3.429 3.657-3.429z">
            </path>
            <path fill="none" stroke="#fefefa" style="stroke: var(--color1, #fefefa)" stroke-linejoin="round"
                stroke-linecap="round" stroke-miterlimit="4" stroke-width="4.5714"
                d="M38.857 5.714l-18.286 12-18.286-12"></path>
        </symbol>
        <symbol id="icon-logo" viewBox="0 0 32 32">
            <path fill="#fff" style="fill: var(--color1, #fff)"
                d="M6.287 11.587c0 1.771-1.351 3.206-3.018 3.206s-3.018-1.435-3.018-3.206c0-1.771 1.351-3.206 3.018-3.206s3.018 1.435 3.018 3.206zM1.324 11.587c0 1.141 0.871 2.066 1.945 2.066s1.945-0.925 1.945-2.066-0.871-2.066-1.945-2.066c-1.074 0-1.945 0.925-1.945 2.066zM22.004 17.65c0 2.735-2.111 4.952-4.715 4.952s-4.715-2.217-4.715-4.952c0-2.735 2.111-4.952 4.715-4.952s4.715 2.217 4.715 4.952zM13.678 17.65c0 2.094 1.617 3.792 3.611 3.792s3.611-1.698 3.611-3.792-1.617-3.792-3.611-3.792-3.611 1.698-3.611 3.792z">
            </path>
            <path fill="#fff" style="fill: var(--color1, #fff)"
                d="M3.544 12.76c0.211 0.009 0.42-0.053 0.6-0.179s0.323-0.308 0.411-0.525c0.088-0.217 0.117-0.458 0.083-0.694s-0.128-0.454-0.272-0.629l-0.258 0.27c0.096 0.117 0.16 0.264 0.183 0.422 0.006 0.039 0.009 0.083 0.009 0.129 0 0.121-0.024 0.237-0.067 0.343l0.002-0.006c-0.059 0.146-0.155 0.268-0.276 0.352s-0.261 0.126-0.403 0.12l-0.013 0.397zM17.415 20.634c0.358 0 0.709-0.128 1.018-0.371s0.564-0.592 0.738-1.011c0.175-0.419 0.263-0.893 0.255-1.373s-0.11-0.948-0.298-1.357l-0.331 0.273c0.151 0.33 0.234 0.708 0.24 1.095s-0.065 0.77-0.206 1.108-0.346 0.619-0.596 0.815c-0.249 0.196-0.533 0.299-0.821 0.299v0.521zM31.623 21.84c0 2.244-1.703 4.063-3.804 4.063s-3.804-1.819-3.804-4.063c0-2.244 1.703-4.063 3.804-4.063s3.804 1.819 3.804 4.063zM25.142 21.84c0 1.579 1.198 2.86 2.677 2.86s2.677-1.28 2.677-2.86c0-1.579-1.198-2.86-2.677-2.86s-2.677 1.28-2.677 2.86z">
            </path>
            <path fill="#fff" style="fill: var(--color1, #fff)"
                d="M29.414 20.45c0.134 0.346 0.202 0.745 0.196 1.149s-0.084 0.799-0.227 1.135-0.344 0.602-0.579 0.766c-0.235 0.163-0.496 0.218-0.75 0.156l0.069-0.709c0.169 0.041 0.341 0.005 0.497-0.104s0.289-0.284 0.384-0.507c0.095-0.223 0.147-0.484 0.15-0.752s-0.041-0.532-0.13-0.762l0.39-0.372zM24.959 3.333c0 1.665-1.253 3.016-2.798 3.016s-2.798-1.35-2.798-3.016c0-1.665 1.253-3.016 2.798-3.016s2.798 1.35 2.798 3.016zM20.507 3.333c0 0.985 0.74 1.783 1.654 1.783s1.654-0.798 1.654-1.783c0-0.985-0.74-1.783-1.654-1.783s-1.654 0.798-1.654 1.783z">
            </path>
            <path fill="#fff" style="fill: var(--color1, #fff)"
                d="M22.661 2.32c0.201 0.11 0.362 0.305 0.454 0.549s0.108 0.52 0.046 0.778c-0.062 0.257-0.199 0.479-0.384 0.623s-0.408 0.202-0.626 0.162l0.055-0.446c0.129 0.024 0.261-0.010 0.372-0.096s0.192-0.217 0.228-0.37c0.037-0.153 0.027-0.317-0.027-0.462s-0.15-0.261-0.27-0.326l0.152-0.411z">
            </path>
            <path fill="#fff" style="fill: var(--color1, #fff)"
                d="M15.969 28.094c0 1.876-1.464 3.397-3.269 3.397s-3.269-1.521-3.269-3.397c0-1.876 1.464-3.397 3.269-3.397s3.269 1.521 3.269 3.397z">
            </path>
            <path fill="#fff" style="fill: var(--color1, #fff)"
                d="M16.409 7.079c0 1.876-1.435 3.397-3.206 3.397s-3.206-1.521-3.206-3.397c0-1.876 1.435-3.397 3.206-3.397s3.206 1.521 3.206 3.397z">
            </path>
            <path fill="#fff" style="fill: var(--color1, #fff)"
                d="M26.090 11.555c0 1.192-0.887 2.159-1.98 2.159s-1.98-0.966-1.98-2.159c0-1.192 0.887-2.159 1.98-2.159s1.98 0.966 1.98 2.159z">
            </path>
            <path fill="none" stroke="#fff" style="stroke: var(--color1, #fff)" stroke-linejoin="miter"
                stroke-linecap="butt" stroke-miterlimit="4" stroke-width="1.2574" d="M14.355 9.933l1.194 3.174"></path>
            <path fill="none" stroke="#fff" style="stroke: var(--color1, #fff)" stroke-linejoin="miter"
                stroke-linecap="butt" stroke-miterlimit="4" stroke-width="1.2574" d="M18.4 13.233l2.892-7.619"></path>
            <path fill="none" stroke="#fff" style="stroke: var(--color1, #fff)" stroke-linejoin="miter"
                stroke-linecap="butt" stroke-miterlimit="4" stroke-width="1.2574" d="M5.846 12.629l7.167 3.174"></path>
            <path fill="none" stroke="#fff" style="stroke: var(--color1, #fff)" stroke-linejoin="miter"
                stroke-linecap="butt" stroke-miterlimit="4" stroke-width="1.2574" d="M4.885 13.976l6.287 11.364"></path>
            <path fill="none" stroke="#fff" style="stroke: var(--color1, #fff)" stroke-linejoin="miter"
                stroke-linecap="butt" stroke-miterlimit="4" stroke-width="1.2574" d="M13.819 25.085l1.383-3.301"></path>
            <path fill="none" stroke="#fff" style="stroke: var(--color1, #fff)" stroke-linejoin="miter"
                stroke-linecap="butt" stroke-miterlimit="4" stroke-width="1.2574" d="M15.539 26.846l8.865-3.746"></path>
            <path fill="none" stroke="#fff" style="stroke: var(--color1, #fff)" stroke-linejoin="miter"
                stroke-linecap="butt" stroke-miterlimit="4" stroke-width="1.2574" d="M24.51 20.508l-3.143-1.46"></path>
            <path fill="none" stroke="#fff" style="stroke: var(--color1, #fff)" stroke-linejoin="miter"
                stroke-linecap="butt" stroke-miterlimit="4" stroke-width="1.2574" d="M26.698 18.321l-1.949-5.143">
            </path>
        </symbol>
    </defs>
</svg>