<svg width="512" height="509" fill="none" xmlns="http://www.w3.org/2000/svg">
  <path d="M100 184.3c0 28.165-21.49 50.998-48 50.998S4 212.465 4 184.3c0-28.166 21.49-50.998 48-50.998s48 22.832 48 50.998Zm-78.934 0c0 18.151 13.85 32.866 30.934 32.866 17.084 0 30.934-14.715 30.934-32.866S69.084 151.434 52 151.434c-17.084 0-30.934 14.715-30.934 32.866ZM350 280.742c0 43.503-33.579 78.769-75 78.769s-75-35.266-75-78.769c0-43.503 33.579-78.77 75-78.77s75 35.267 75 78.77Zm-132.436 0c0 33.315 25.715 60.322 57.436 60.322s57.436-27.007 57.436-60.322S306.721 220.42 275 220.42s-57.436 27.007-57.436 60.322Z" fill="#fff"/>
  <path d="M56.379 202.969c3.36.139 6.681-.85 9.543-2.842 2.862-1.991 5.136-4.896 6.536-8.347 1.4-3.45 1.86-7.292 1.325-11.039-.535-3.746-2.042-7.229-4.331-10.009l-4.098 4.299c1.535 1.865 2.547 4.202 2.906 6.715a14.38 14.38 0 0 1-.89 7.406c-.938 2.315-2.464 4.264-4.384 5.6-1.92 1.336-4.148 2-6.403 1.907l-.204 6.31ZM277 328.205c5.692 0 11.282-2.037 16.192-5.9 4.91-3.863 8.963-9.413 11.74-16.077 2.778-6.665 4.18-14.202 4.061-21.835-.118-7.634-1.753-15.086-4.735-21.59l-5.265 4.343c2.406 5.247 3.725 11.26 3.82 17.419.096 6.159-1.035 12.241-3.276 17.618-2.241 5.377-5.511 9.854-9.473 12.971-3.961 3.117-8.471 4.761-13.064 4.761v8.29ZM503 347.393c0 35.694-27.087 64.631-60.5 64.631S382 383.087 382 347.393c0-35.695 27.087-64.632 60.5-64.632s60.5 28.937 60.5 64.632Zm-103.079 0c0 25.121 19.063 45.486 42.579 45.486 23.516 0 42.579-20.365 42.579-45.486 0-25.122-19.063-45.487-42.579-45.487-23.516 0-42.579 20.365-42.579 45.487Z" fill="#fff"/>
  <path d="M467.874 325.282c2.125 5.503 3.208 11.845 3.121 18.283-.086 6.437-1.339 12.702-3.61 18.058s-5.466 9.581-9.21 12.179c-3.744 2.598-7.882 3.461-11.927 2.487l1.097-11.278c2.681.645 5.423.073 7.904-1.649 2.481-1.721 4.599-4.522 6.104-8.071 1.505-3.55 2.335-7.702 2.392-11.968.058-4.266-.66-8.47-2.068-12.117l6.197-5.924ZM397 53.018c0 26.492-19.923 47.968-44.5 47.968S308 79.51 308 53.018c0-26.492 19.923-47.969 44.5-47.969S397 26.526 397 53.018Zm-70.808 0c0 15.662 11.778 28.359 26.308 28.359s26.308-12.697 26.308-28.36c0-15.661-11.778-28.358-26.308-28.358s-26.308 12.697-26.308 28.359Z" fill="#fff"/>
  <path d="M360.458 36.906c3.193 1.754 5.758 4.858 7.219 8.737 1.462 3.88 1.722 8.273.732 12.368-.989 4.095-3.162 7.615-6.115 9.91-2.954 2.294-6.489 3.208-9.952 2.572l.876-7.091c2.058.377 4.158-.166 5.913-1.53 1.755-1.363 3.046-3.454 3.634-5.887.588-2.434.433-5.044-.435-7.35-.869-2.304-2.392-4.148-4.29-5.19l2.418-6.539Z" fill="#fff"/>
  <ellipse cx="202" cy="446.864" rx="52" ry="54.028" fill="#fff"/>
  <ellipse cx="210" cy="112.6" rx="51" ry="54.028" fill="#fff"/>
  <ellipse cx="383.5" cy="183.795" rx="31.5" ry="34.335" fill="#fff"/>
  <path transform="matrix(.35218 .93593 -.93362 .35827 219 161.578)" stroke="#fff" stroke-width="20" d="M0-10h53.95"/>
  <path transform="matrix(.35488 -.93491 .93256 .361 302 214.091)" stroke="#fff" stroke-width="20" d="M0-10h129.62"/>
  <path transform="matrix(.91433 .40498 -.39836 .91723 89 210.051)" stroke="#fff" stroke-width="20" d="M0-10h124.682"/>
  <path transform="matrix(.48407 .87503 -.87095 .49136 69 227.219)" stroke="#fff" stroke-width="20" d="M0-10h206.582"/>
  <path transform="matrix(.3864 -.92233 .91958 .3929 229 402.935)" stroke="#fff" stroke-width="20" d="M0-10h56.935"/>
  <path transform="matrix(.92114 -.38924 .3828 .92383 251 436.26)" stroke="#fff" stroke-width="20" d="M0-10h153.072"/>
  <path transform="matrix(-.90692 -.4213 .41453 -.91004 394 317.097)" stroke="#fff" stroke-width="20" d="M0-10h55.132"/>
  <path transform="matrix(-.35438 -.9351 .93276 -.3605 434 287.811)" stroke="#fff" stroke-width="20" d="M0-10h87.476"/>
</svg>
